<?xml version="1.0" encoding="UTF-8"?>
<svg version="1.1" xmlns="http://www.w3.org/2000/svg" width="811" height="170">
<path d="M0 0 C7.47835449 0.08740934 7.47835449 0.08740934 10.75 3.25 C11.5625 5.9375 11.5625 5.9375 11.75 8.25 C12.41 8.25 13.07 8.25 13.75 8.25 C14.08 10.23 14.41 12.21 14.75 14.25 C15.08 14.25 15.41 14.25 15.75 14.25 C15.75 44.61 15.75 74.97 15.75 106.25 C16.41 106.25 17.07 106.25 17.75 106.25 C17.74000725 104.69691635 17.74000725 104.69691635 17.72981262 103.11245728 C17.66908693 93.37102607 17.62406856 83.6296331 17.59456348 73.8880558 C17.57888486 68.87939207 17.55760666 63.87088071 17.52368164 58.86230469 C17.49116632 54.03180817 17.47316355 49.20145853 17.46536827 44.37086105 C17.45981065 42.52479107 17.44895844 40.67872943 17.43280983 38.83272171 C17.41113932 36.25369938 17.40802867 33.67528963 17.40942383 31.09619141 C17.398638 30.32727066 17.38785217 29.55834991 17.3767395 28.76612854 C17.38923645 26.64151001 17.38923645 26.64151001 17.75 23.25 C20.92356386 21.13429076 21.75972251 20.99040429 25.40161133 20.94360352 C26.34301468 20.92761612 27.28441803 20.91162872 28.25434875 20.89515686 C29.77780159 20.88711281 29.77780159 20.88711281 31.33203125 20.87890625 C32.37896652 20.86987778 33.42590179 20.8608493 34.50456238 20.85154724 C36.72119279 20.83703236 38.93786616 20.82815494 41.15454102 20.82446289 C44.53931328 20.81258139 47.92225403 20.76341857 51.30664062 20.71289062 C53.46092861 20.70342473 55.61522778 20.69619049 57.76953125 20.69140625 C59.28387505 20.66210777 59.28387505 20.66210777 60.82881165 20.63221741 C68.68726667 20.68244727 68.68726667 20.68244727 72.27612305 23.62866211 C73.50069214 24.92622437 73.50069214 24.92622437 74.75 26.25 C75.595625 27.075 76.44125 27.9 77.3125 28.75 C78.5190625 29.9875 78.5190625 29.9875 79.75 31.25 C80.575 32.075 81.4 32.9 82.25 33.75 C83.075 34.575 83.9 35.4 84.75 36.25 C86.11125 37.549375 86.11125 37.549375 87.5 38.875 C89.75 41.25 89.75 41.25 90.75 44.25 C91.74 44.58 92.73 44.91 93.75 45.25 C95.75 47.25 95.75 47.25 95.75 50.25 C98.72 50.25 101.69 50.25 104.75 50.25 C108.43 57.61 108.43 57.61 109.25 61.8125 C109.7538193 64.26861908 110.54483627 66.06564073 111.75 68.25 C112.08 68.91 112.41 69.57 112.75 70.25 C114.71766531 71.00679435 116.72975201 71.6474699 118.75 72.25 C120.416741 72.74975216 122.08340253 73.24976939 123.75 73.75 C124.61367188 74.00652344 125.47734375 74.26304688 126.3671875 74.52734375 C128.21408091 75.08746716 130.04776454 75.69123994 131.875 76.3125 C136.30443412 77.75688069 140.7986368 78.87831177 145.375 79.75 C148.2550896 80.35633465 150.97333177 81.2813948 153.75 82.25 C153.75 82.91 153.75 83.57 153.75 84.25 C155.4 83.92 157.05 83.59 158.75 83.25 C158.75 83.91 158.75 84.57 158.75 85.25 C159.74 85.25 160.73 85.25 161.75 85.25 C161.75 94.16 161.75 103.07 161.75 112.25 C163.73 112.91 165.71 113.57 167.75 114.25 C167.77887512 117.89581687 167.79675585 121.54160463 167.8125 125.1875 C167.82087891 126.22841797 167.82925781 127.26933594 167.83789062 128.34179688 C167.84272461 129.82583008 167.84272461 129.82583008 167.84765625 131.33984375 C167.85551147 132.71450806 167.85551147 132.71450806 167.86352539 134.11694336 C167.75 136.25 167.75 136.25 166.75 137.25 C164.75217874 137.40825258 162.74911166 137.50119171 160.74609375 137.56640625 C158.92368164 137.62924805 158.92368164 137.62924805 157.06445312 137.69335938 C155.78505859 137.73267578 154.50566406 137.77199219 153.1875 137.8125 C151.90423828 137.85568359 150.62097656 137.89886719 149.29882812 137.94335938 C146.11600147 138.049848 142.93309326 138.15185962 139.75 138.25 C139.42 139.57 139.09 140.89 138.75 142.25 C138.09 142.25 137.43 142.25 136.75 142.25 C136.564375 143.11625 136.37875 143.9825 136.1875 144.875 C134.35433104 149.1789619 131.7028026 151.76739347 127.75 154.25 C126.76 154.25 125.77 154.25 124.75 154.25 C124.75 154.91 124.75 155.57 124.75 156.25 C115.01310298 158.37994622 109.02345102 158.18419134 99.75 154.25 C99.75 153.59 99.75 152.93 99.75 152.25 C99.1725 152.023125 98.595 151.79625 98 151.5625 C95.1331729 149.89018419 93.61288964 147.97780269 91.75 145.25 C91.75 144.26 91.75 143.27 91.75 142.25 C91.09 142.25 90.43 142.25 89.75 142.25 C89.75 140.6 89.75 138.95 89.75 137.25 C80.84 137.25 71.93 137.25 62.75 137.25 C62.75 138.9 62.75 140.55 62.75 142.25 C61.05331793 143.94668207 58.93867982 143.36968993 56.67559814 143.37442017 C55.94983582 143.37082489 55.22407349 143.36722961 54.47631836 143.36352539 C53.71539383 143.36367142 52.9544693 143.36381744 52.17048645 143.3639679 C49.64357702 143.36326862 47.11674038 143.35547555 44.58984375 143.34765625 C42.8424941 143.34579212 41.09514393 143.3443682 39.34779358 143.34336853 C34.73968066 143.33954293 30.13159905 143.32971229 25.52349854 143.31866455 C20.82491479 143.30845134 16.12632601 143.3038711 11.42773438 143.29882812 C2.20180913 143.28809005 -7.02409284 143.27101313 -16.25 143.25 C-16.25 141.27 -16.25 139.29 -16.25 137.25 C-20.05068341 137.14515356 -23.56719941 137.25190767 -27.25 138.25 C-28.90140233 140.12010156 -29.57121679 141.79433422 -30.4453125 144.12109375 C-32.30092992 149.03037285 -35.6334814 152.14058465 -40.1875 154.5 C-41.53415633 155.10046803 -42.8879985 155.68520176 -44.25 156.25 C-45.219375 156.683125 -46.18875 157.11625 -47.1875 157.5625 C-54.00965978 159.09400526 -61.09045572 157.41370723 -67.25 154.25 C-69.51451333 152.71940144 -71.27562549 151.17501515 -73.25 149.25 C-73.25 148.59 -73.25 147.93 -73.25 147.25 C-73.91 146.92 -74.57 146.59 -75.25 146.25 C-75.25 144.93 -75.25 143.61 -75.25 142.25 C-75.91 142.25 -76.57 142.25 -77.25 142.25 C-77.91 140.93 -78.57 139.61 -79.25 138.25 C-81.70224694 138.35613836 -81.70224694 138.35613836 -84.25 139.25 C-85.46297649 141.5306707 -85.46297649 141.5306707 -86.25 144.25 C-87.75 147.0625 -87.75 147.0625 -89.25 149.25 C-89.91 149.25 -90.57 149.25 -91.25 149.25 C-91.25 149.91 -91.25 150.57 -91.25 151.25 C-92.24 151.25 -93.23 151.25 -94.25 151.25 C-94.25 151.91 -94.25 152.57 -94.25 153.25 C-101.33146072 156.95933657 -106.26743068 158.85273809 -114.25 157.25 C-115.9825 156.9096875 -115.9825 156.9096875 -117.75 156.5625 C-122.17666323 154.90250129 -125.82595782 152.52285071 -129.25 149.25 C-129.25 148.59 -129.25 147.93 -129.25 147.25 C-129.70375 146.816875 -130.1575 146.38375 -130.625 145.9375 C-132.62325743 143.86238652 -133.40714414 141.98928153 -134.25 139.25 C-133.92 138.59 -133.59 137.93 -133.25 137.25 C-140.51 137.25 -147.77 137.25 -155.25 137.25 C-155.25 127.25 -155.25 127.25 -154.25 126.25 C-152.83672053 126.09379445 -151.4164541 125.99943827 -149.99609375 125.93359375 C-149.14208984 125.89169922 -148.28808594 125.84980469 -147.40820312 125.80664062 C-146.51037109 125.76732422 -145.61253906 125.72800781 -144.6875 125.6875 C-143.33495117 125.62272461 -143.33495117 125.62272461 -141.95507812 125.55664062 C-139.72021515 125.45021858 -137.48523692 125.34820012 -135.25 125.25 C-134.79625 124.280625 -134.3425 123.31125 -133.875 122.3125 C-132.25 119.25 -132.25 119.25 -130.25 118.25 C-130.25 117.59 -130.25 116.93 -130.25 116.25 C-129.26 115.26 -129.26 115.26 -128.25 114.25 C-127.59 113.54875 -126.93 112.8475 -126.25 112.125 C-124.25 110.25 -124.25 110.25 -122.25 110.25 C-121.92 109.59 -121.59 108.93 -121.25 108.25 C-114.27525117 105.01172376 -108.28615632 104.1492301 -100.8125 106.1875 C-99.27076631 106.82675543 -97.74280683 107.50359659 -96.25 108.25 C-96.25 108.91 -96.25 109.57 -96.25 110.25 C-94.93 110.58 -93.61 110.91 -92.25 111.25 C-92.25 111.91 -92.25 112.57 -92.25 113.25 C-91.59 113.25 -90.93 113.25 -90.25 113.25 C-90.25 113.91 -90.25 114.57 -90.25 115.25 C-89.63125 115.45625 -89.0125 115.6625 -88.375 115.875 C-85.3914208 117.80555125 -85.15712395 119.90061928 -84.25 123.25 C-83.92 123.91 -83.59 124.57 -83.25 125.25 C-81.6 125.25 -79.95 125.25 -78.25 125.25 C-78.0334375 124.3528125 -78.0334375 124.3528125 -77.8125 123.4375 C-77.3627561 121.68849596 -76.82107659 119.96322977 -76.25 118.25 C-75.59 118.25 -74.93 118.25 -74.25 118.25 C-73.755 116.765 -73.755 116.765 -73.25 115.25 C-68.30227533 109.73682109 -63.66787618 105.89867391 -56.1796875 105.34765625 C-55.54289063 105.31542969 -54.90609375 105.28320312 -54.25 105.25 C-53.30125 105.146875 -52.3525 105.04375 -51.375 104.9375 C-45.56126294 105.51887371 -39.99785879 107.40766236 -35.9375 111.6875 C-35.380625 112.533125 -34.82375 113.37875 -34.25 114.25 C-33.363125 115.095625 -32.47625 115.94125 -31.5625 116.8125 C-29.30094681 119.19629931 -28.66894791 120.10789068 -28.25 123.25 C-27.92 124.24 -27.59 125.23 -27.25 126.25 C-23.95 125.92 -20.65 125.59 -17.25 125.25 C-17.18941406 123.96222656 -17.12882813 122.67445313 -17.06640625 121.34765625 C-16.98201753 119.66925841 -16.8973687 117.99087364 -16.8125 116.3125 C-16.77318359 115.46236328 -16.73386719 114.61222656 -16.69335938 113.73632812 C-16.65146484 112.92744141 -16.60957031 112.11855469 -16.56640625 111.28515625 C-16.52974854 110.5362915 -16.49309082 109.78742676 -16.45532227 109.01586914 C-16.25 107.25 -16.25 107.25 -15.25 106.25 C-13.7612814 106.16330568 -12.268555 106.14296506 -10.77734375 106.15234375 C-9.87822266 106.15556641 -8.97910156 106.15878906 -8.05273438 106.16210938 C-6.63444336 106.17467773 -6.63444336 106.17467773 -5.1875 106.1875 C-3.7634082 106.19426758 -3.7634082 106.19426758 -2.31054688 106.20117188 C0.04303065 106.2129989 2.39648477 106.22947975 4.75 106.25 C4.7119659 94.21047378 4.65263721 82.17125907 4.56609726 70.13197803 C4.52658304 64.54166805 4.49441382 58.95151651 4.47900391 53.36108398 C4.46386345 47.96628386 4.42946402 42.57191925 4.38169098 37.17731285 C4.36685028 35.11887077 4.35895745 33.06036652 4.35811615 31.00187111 C4.35575286 28.11902015 4.32872442 25.237379 4.29589844 22.35473633 C4.3009288 21.50309402 4.30595917 20.65145172 4.31114197 19.77400208 C4.24048118 15.76482732 4.0375008 13.7155985 1.8838501 10.22782898 C-0.54554196 7.97606723 -2.00721784 7.60057104 -5.25 7.25 C-6.25 6.25 -6.25 6.25 -6.375 3.75 C-6.15096907 -0.73061856 -3.98750308 0.06397064 0 0 Z M27.75 31.25 C27.75 56 27.75 80.75 27.75 106.25 C39.3 106.58 50.85 106.91 62.75 107.25 C62.6875 116.1875 62.6875 116.1875 62.65991211 119.00756836 C62.65741455 119.73596924 62.65491699 120.46437012 62.65234375 121.21484375 C62.64710693 121.9637085 62.64187012 122.71257324 62.63647461 123.48413086 C62.55658248 125.27667739 62.55658248 125.27667739 63.75 126.25 C67.70183868 126.50299591 71.66602259 126.43522734 75.625 126.4375 C77.29755859 126.45586914 77.29755859 126.45586914 79.00390625 126.47460938 C80.60685547 126.47750977 80.60685547 126.47750977 82.2421875 126.48046875 C83.71727783 126.48663208 83.71727783 126.48663208 85.22216797 126.49291992 C87.99600742 126.42729178 87.99600742 126.42729178 90.75 124.25 C91.36067144 122.39255793 91.36067144 122.39255793 91.75 120.25 C92.3969365 118.5755761 93.05959426 116.90697379 93.75 115.25 C94.41 115.25 95.07 115.25 95.75 115.25 C95.75 114.59 95.75 113.93 95.75 113.25 C96.41 113.25 97.07 113.25 97.75 113.25 C98.4925 112.445625 99.235 111.64125 100 110.8125 C103.1196693 107.90553542 104.59563058 107.60356335 108.75 107.25 C109.41 107.064375 110.07 106.87875 110.75 106.6875 C115.81097439 105.58041185 119.99853712 106.30621973 124.75 108.25 C125.41 108.91 126.07 109.57 126.75 110.25 C127.74 110.25 128.73 110.25 129.75 110.25 C130.1521875 111.1471875 130.1521875 111.1471875 130.5625 112.0625 C131.61831322 114.25443888 131.61831322 114.25443888 133.1875 115.6875 C136.18809282 118.68809282 137.86784638 122.48569275 139.75 126.25 C143.38 126.25 147.01 126.25 150.75 126.25 C150.79937279 121.58692986 150.83570627 116.92401127 150.85986328 112.26074219 C150.86993188 110.67380117 150.88358767 109.08687875 150.90087891 107.5 C150.92509001 105.22130753 150.93647422 102.94285994 150.9453125 100.6640625 C150.95563507 99.95255035 150.96595764 99.24103821 150.97659302 98.50796509 C150.97699422 96.75368335 150.87202209 95.00003291 150.75 93.25 C148.48555803 90.98555803 147.56305146 90.83343837 144.5 90.25 C140.79494752 89.49014027 137.32805555 88.49136621 133.75 87.25 C132.00372786 86.67603148 130.25338667 86.11435274 128.5 85.5625 C127.64921875 85.29050781 126.7984375 85.01851562 125.921875 84.73828125 C123.71824304 84.00233222 123.71824304 84.00233222 121.75 85.25 C121.42 84.59 121.09 83.93 120.75 83.25 C113.78515459 81.24810164 107.1480439 80.91551413 99.93359375 80.8359375 C98.83652603 80.81657135 97.73945831 80.7972052 96.60914612 80.7772522 C93.13534099 80.71789209 89.66150194 80.67124616 86.1875 80.625 C83.81964771 80.5867801 81.45180872 80.54772608 79.08398438 80.5078125 C73.30606228 80.41067055 67.52826686 80.33075548 61.75 80.25 C61.42 70.35 61.09 60.45 60.75 50.25 C68.34 50.25 75.93 50.25 83.75 50.25 C82.65299157 46.9589747 81.87380142 46.28976712 79.25 44.1875 C75.84948542 41.44897084 75.84948542 41.44897084 74.75 39.25 C73.76 39.25 72.77 39.25 71.75 39.25 C71.255 37.765 71.255 37.765 70.75 36.25 C69.33497282 33.44502426 69.33497282 33.44502426 66.75 31.25 C63.77159764 30.55591875 60.87219567 30.66694601 57.828125 30.76171875 C57.0654834 30.76675415 56.3028418 30.77178955 55.51708984 30.77697754 C52.67767559 30.80306991 49.8387987 30.87287787 47 30.9375 C40.6475 31.040625 34.295 31.14375 27.75 31.25 Z M91.52734375 59.46875 C90.26728516 59.51386719 89.00722656 59.55898437 87.70898438 59.60546875 C86.36848945 59.65364202 85.02799466 59.70181915 83.6875 59.75 C82.34309954 59.79819335 80.99869851 59.84637065 79.65429688 59.89453125 C76.35285887 60.01286236 73.0514269 60.13135941 69.75 60.25 C69.75 63.88 69.75 67.51 69.75 71.25 C80.31 71.25 90.87 71.25 101.75 71.25 C101.09 68.94 100.43 66.63 99.75 64.25 C99.39628502 62.58753959 99.05404678 60.92225729 98.75 59.25 C96.34301077 59.25 93.93208669 59.38248119 91.52734375 59.46875 Z M-116.25 116.25 C-116.25 116.91 -116.25 117.57 -116.25 118.25 C-117.57 118.25 -118.89 118.25 -120.25 118.25 C-123.43988092 121.17965379 -125.02711062 124.86503776 -125.70703125 129.08984375 C-125.93212092 134.70978953 -125.93212092 134.70978953 -123.5625 139.625 C-122.799375 140.16125 -122.03625 140.6975 -121.25 141.25 C-120.404375 142.136875 -119.55875 143.02375 -118.6875 143.9375 C-115.52651824 146.93638013 -112.4800495 147.61549258 -108.25 148.25 C-106.765 147.755 -106.765 147.755 -105.25 147.25 C-104.26 147.25 -103.27 147.25 -102.25 147.25 C-102.25 146.59 -102.25 145.93 -102.25 145.25 C-101.693125 145.023125 -101.13625 144.79625 -100.5625 144.5625 C-97.22770657 142.6697794 -95.50692907 141.44731618 -93.25 138.25 C-92.54340995 133.09450965 -91.84293606 127.49596385 -94.69140625 122.94921875 C-95.20574219 122.38847656 -95.72007812 121.82773438 -96.25 121.25 C-96.724375 120.71375 -97.19875 120.1775 -97.6875 119.625 C-99.45378772 118.0706668 -101.05591197 117.0993244 -103.25 116.25 C-104.24 116.745 -104.24 116.745 -105.25 117.25 C-105.58 116.59 -105.91 115.93 -106.25 115.25 C-109.7719721 115.16995518 -112.86981469 115.20994298 -116.25 116.25 Z M105.125 117.6875 C104.67125 118.203125 104.2175 118.71875 103.75 119.25 C102.39567309 120.60432691 101.0197269 121.93731586 99.625 123.25 C96.97309439 127.49304898 97.22193936 131.35894652 97.75 136.25 C98.08 136.91 98.41 137.57 98.75 138.25 C99.41 138.25 100.07 138.25 100.75 138.25 C100.75 139.57 100.75 140.89 100.75 142.25 C104.40103873 146.12231381 107.53439416 146.86365883 112.75 147.25 C113.74 147.25 114.73 147.25 115.75 147.25 C117.41666667 147.25 119.08333333 147.25 120.75 147.25 C120.75 146.59 120.75 145.93 120.75 145.25 C121.35457031 145.14816406 121.95914062 145.04632813 122.58203125 144.94140625 C125.81056536 143.91176564 126.87611961 142.03130325 128.703125 139.28515625 C130.84058543 135.12986936 131.27027218 131.11430864 130 126.5625 C129.5875 125.799375 129.175 125.03625 128.75 124.25 C128.275625 123.3425 127.80125 122.435 127.3125 121.5 C125.88250046 118.96147517 125.88250046 118.96147517 122.75 118.25 C122.09 117.59 121.43 116.93 120.75 116.25 C118.45537477 115.74858165 118.45537477 115.74858165 115.875 115.5625 C115.01132812 115.47613281 114.14765625 115.38976562 113.2578125 115.30078125 C109.93096993 115.23341528 107.64986021 115.45396981 105.125 117.6875 Z M-66.0625 121.25 C-67.50526938 123.292265 -67.50526938 123.292265 -67.25 126.25 C-68.24 126.745 -68.24 126.745 -69.25 127.25 C-70.24684427 131.16069675 -70.50257421 133.54840497 -69.125 137.375 C-65.20350578 143.38795781 -61.46757027 146.14539826 -54.625 147.9375 C-52.10621492 148.44500797 -52.10621492 148.44500797 -49.25 147.25 C-48.26 147.25 -47.27 147.25 -46.25 147.25 C-45.59 146.59 -44.93 145.93 -44.25 145.25 C-43.0434375 144.2290625 -43.0434375 144.2290625 -41.8125 143.1875 C-38.60014212 139.50504096 -37.04090428 136.07196482 -36.25 131.25 C-36.85738122 127.92221575 -36.85738122 127.92221575 -38.25 125.25 C-38.58 124.26 -38.91 123.27 -39.25 122.25 C-39.91 121.59 -40.57 120.93 -41.25 120.25 C-41.683125 119.734375 -42.11625 119.21875 -42.5625 118.6875 C-46.41427365 115.40635948 -52.04995808 115.97384794 -56.87890625 116.03125 C-61.10234202 116.42089152 -63.29478583 118.19597057 -66.0625 121.25 Z M-7.25 116.25 C-7.25 122.19 -7.25 128.13 -7.25 134.25 C-6.92 134.25 -6.59 134.25 -6.25 134.25 C-6.25 128.31 -6.25 122.37 -6.25 116.25 C-6.58 116.25 -6.91 116.25 -7.25 116.25 Z M-5.25 116.25 C-5.25 122.19 -5.25 128.13 -5.25 134.25 C9.93 134.25 25.11 134.25 40.75 134.25 C40.75 128.31 40.75 122.37 40.75 116.25 C25.57 116.25 10.39 116.25 -5.25 116.25 Z M48.75 116.25 C48.75 122.19 48.75 128.13 48.75 134.25 C50.07 134.25 51.39 134.25 52.75 134.25 C52.75 128.64 52.75 123.03 52.75 117.25 C51.43 116.92 50.11 116.59 48.75 116.25 Z " fill="#EE946A" transform="translate(623.25,6.75)"/>
<path d="M0 0 C20.19221709 -0.02332734 40.38443145 -0.04097836 60.5766592 -0.05181217 C69.95158271 -0.05697548 79.32649787 -0.06401884 88.70141602 -0.07543945 C96.86954522 -0.08538523 105.03766837 -0.09185317 113.20580345 -0.09408849 C117.53351055 -0.09539578 121.86120034 -0.09848277 126.1889019 -0.10573006 C130.25749728 -0.1124886 134.32606812 -0.1146173 138.39466858 -0.11310768 C139.89231563 -0.11338408 141.38996345 -0.11539019 142.88760567 -0.11920547 C144.92351318 -0.12414006 146.9594337 -0.12239818 148.99534607 -0.12025452 C150.13744758 -0.12117631 151.27954908 -0.1220981 152.45625973 -0.12304783 C155 0 155 0 156 1 C156.10573328 3.60612081 156.14678075 6.1858777 156.14526367 8.79272461 C156.14862228 9.60895798 156.1519809 10.42519135 156.15544128 11.26615906 C156.16498033 13.97823588 156.16689587 16.69025117 156.16796875 19.40234375 C156.17117926 21.2794243 156.17454317 23.15650459 156.17805481 25.03358459 C156.18405347 28.97381165 156.18589395 32.91401675 156.18530273 36.85424805 C156.18520107 41.91316633 156.19885482 46.9719444 156.21607494 52.03082943 C156.22717161 55.9091914 156.22922266 59.78751923 156.22869301 63.66589546 C156.2298766 65.53148444 156.23431943 67.39707419 156.24202538 69.26264763 C156.25177844 71.8678264 156.24896592 74.47269756 156.24291992 77.07788086 C156.24853943 77.8545813 156.25415894 78.63128174 156.25994873 79.43151855 C156.22831551 84.77168449 156.22831551 84.77168449 154 87 C151.36444664 87.24609566 151.36444664 87.24609566 147.95101929 87.24050903 C146.66090439 87.24325836 145.37078949 87.24600769 144.0415802 87.24884033 C142.60372833 87.24176155 141.16587739 87.23449192 139.72802734 87.22705078 C138.22036242 87.2264869 136.71269695 87.22680278 135.20503235 87.22793579 C131.10399411 87.22851119 127.00307213 87.2167267 122.90206099 87.20278788 C118.61925306 87.19031163 114.33644267 87.18911248 110.05361938 87.18673706 C101.93986209 87.18051314 93.82615849 87.16409001 85.71242487 87.14403808 C76.47676973 87.12170742 67.24111206 87.11069279 58.00543666 87.10064721 C39.00359396 87.07972455 20.00180129 87.0445309 1 87 C-0.125 85.5 -0.125 85.5 -1 83 C-0.34 80.36 0.32 77.72 1 75 C48.52 75 96.04 75 145 75 C145 53.55 145 32.1 145 10 C130.93310547 10.01740234 130.93310547 10.01740234 116.58203125 10.03515625 C110.62565076 10.04026837 104.66927188 10.04512404 98.71289062 10.04882812 C89.26765395 10.05474919 79.82242623 10.06168936 70.37719727 10.07543945 C63.49663161 10.08545115 56.61607325 10.09186877 49.73550051 10.09408849 C46.09710865 10.09538465 42.45873768 10.09840038 38.82035255 10.10573006 C34.74456507 10.11387322 30.66881319 10.11398699 26.59301758 10.11352539 C25.40545868 10.11712067 24.21789978 10.12071594 22.99435425 10.12442017 C6.63530556 10.10449334 6.63530556 10.10449334 0 9 C-1.53445094 5.93109813 -0.54984289 3.29905734 0 0 Z " fill="#F4814D" transform="translate(468,22)"/>
<path d="M0 0 C1.51207031 -0.02416992 1.51207031 -0.02416992 3.0546875 -0.04882812 C10.74436372 -0.05380849 17.88986779 0.86547004 24.25 5.5 C29.00582988 10.59553202 30.46600163 16.15089773 30.23828125 23.06640625 C29.46814431 27.8280056 27.26489759 31.92260241 23.875 35.3125 C24.23491973 40.6928386 27.41159058 44.38670888 30.37890625 48.69140625 C31.875 51.3125 31.875 51.3125 31.875 55.3125 C29.32373232 56.58813384 27.41177914 56.51623295 24.5625 56.5625 C23.61761719 56.58828125 22.67273438 56.6140625 21.69921875 56.640625 C18.26703597 56.24186517 16.58504326 55.45720311 13.875 53.3125 C11.96666035 50.27069728 10.41542997 47.14314722 8.81640625 43.9296875 C7.0680729 41.00689839 7.0680729 41.00689839 3.65234375 40.4453125 C2.73582031 40.40148437 1.81929687 40.35765625 0.875 40.3125 C0.88660156 41.22773437 0.89820312 42.14296875 0.91015625 43.0859375 C0.91917969 44.27445313 0.92820312 45.46296875 0.9375 46.6875 C0.94910156 47.87085938 0.96070312 49.05421875 0.97265625 50.2734375 C0.875 53.3125 0.875 53.3125 -0.125 55.3125 C-2.92657448 56.24635816 -4.77947803 56.47604595 -7.6875 56.5 C-8.47253906 56.51417969 -9.25757812 56.52835938 -10.06640625 56.54296875 C-12.125 56.3125 -12.125 56.3125 -14.125 54.3125 C-14.38569641 52.11132812 -14.38569641 52.11132812 -14.3996582 49.34375 C-14.40919022 48.30927734 -14.41872223 47.27480469 -14.42854309 46.20898438 C-14.42763168 45.08814453 -14.42672028 43.96730469 -14.42578125 42.8125 C-14.43006638 41.66587891 -14.4343515 40.51925781 -14.43876648 39.33789062 C-14.44451738 36.91016298 -14.44500448 34.4824181 -14.44067383 32.0546875 C-14.437513 28.32782806 -14.46096763 24.60176124 -14.48632812 20.875 C-14.48860083 18.52083434 -14.48930475 16.16666653 -14.48828125 13.8125 C-14.497491 12.69166016 -14.50670074 11.57082031 -14.51618958 10.41601562 C-14.50996078 9.38154297 -14.50373199 8.34707031 -14.49731445 7.28125 C-14.49794388 6.36794922 -14.4985733 5.45464844 -14.4992218 4.51367188 C-14.37572861 3.78728516 -14.25223541 3.06089844 -14.125 2.3125 C-9.62453032 -0.68781312 -5.29494681 -0.01654671 0 0 Z M0.875 14.3125 C0.875 18.2725 0.875 22.2325 0.875 26.3125 C7.54439214 26.895894 7.54439214 26.895894 13.5625 24.6875 C15.14519709 22.30817524 15.14519709 22.30817524 14.75 19.1875 C14.09191176 16.21568627 14.09191176 16.21568627 11.875 14.3125 C9.20550591 14.06934344 9.20550591 14.06934344 6.25 14.1875 C4.47625 14.22875 2.7025 14.27 0.875 14.3125 Z " fill="#050505" transform="translate(80.125,26.6875)"/>
<path d="M0 0 C2.475 0.99 2.475 0.99 5 2 C5.33 7.94 5.66 13.88 6 20 C12.28100902 19.17977883 12.28100902 19.17977883 16 15 C16.83570978 11.81106273 16.83570978 11.81106273 17.125 8.375 C17.80555556 2.19444444 17.80555556 2.19444444 20 0 C22.53125 -0.23046875 22.53125 -0.23046875 25.5 -0.1875 C26.96953125 -0.17783203 26.96953125 -0.17783203 28.46875 -0.16796875 C31 0 31 0 33 1 C33.5770117 16.21601229 33.5770117 16.21601229 30 23 C29.0925 23.886875 28.185 24.77375 27.25 25.6875 C26.5075 26.450625 25.765 27.21375 25 28 C25.18364303 32.85342304 27.94110326 36.62451446 30.4375 40.625 C30.84548828 41.29273438 31.25347656 41.96046875 31.67382812 42.6484375 C33.40250938 45.46847217 35.16480259 48.24720388 37 51 C37 52.32 37 53.64 37 55 C33.99840091 55.84571614 31.1789318 56.25015065 28.0625 56.375 C27.22847656 56.42398438 26.39445312 56.47296875 25.53515625 56.5234375 C21.77088248 55.74622227 20.44135787 53.92731536 18 51 C15.9023913 47.79174047 14.06690513 44.44391557 12.21875 41.08789062 C11.22307412 39.34545783 10.11899567 37.66592052 9 36 C8.01 36 7.02 36 6 36 C5.67 41.94 5.34 47.88 5 54 C1.35781184 55.82109408 0.18346574 56.27547469 -3.625 56.25 C-4.40101563 56.25515625 -5.17703125 56.2603125 -5.9765625 56.265625 C-8 56 -8 56 -10 54 C-10.24050903 51.74740601 -10.24050903 51.74740601 -10.22705078 48.90771484 C-10.22682419 47.31629166 -10.22682419 47.31629166 -10.22659302 45.69271851 C-10.21110916 43.96923691 -10.21110916 43.96923691 -10.1953125 42.2109375 C-10.1924826 41.03737701 -10.18965271 39.86381653 -10.18673706 38.6546936 C-10.17551355 34.89469338 -10.15040492 31.13492861 -10.125 27.375 C-10.11497301 24.8307326 -10.10584668 22.28646148 -10.09765625 19.7421875 C-10.07556714 13.4947109 -10.04206824 7.24737227 -10 1 C-6.8548375 -0.57258125 -3.43577095 -0.36524412 0 0 Z " fill="#060606" transform="translate(242,27)"/>
<path d="M0 0 C4.49753508 4.52712413 6.86908256 8.5850456 7 15 C5.21177006 16.78822994 2.73618055 16.33912182 0.3125 16.4375 C-5.39952745 16.42401233 -5.39952745 16.42401233 -7.84765625 14.6953125 C-8.7753891 13.61511102 -9.68605727 12.51999346 -10.578125 11.41015625 C-13.34132079 8.66973405 -16.2269202 9 -20 9 C-23.65353982 9.70260381 -25.50516304 10.5720329 -28.3125 13 C-31.04813713 17.86335489 -31.84648064 22.87695964 -30.37109375 28.3203125 C-28.78116376 31.9259278 -27.39679354 33.72396971 -24.125 36 C-20.71819516 37.09017755 -18.5446853 37.51693327 -15 37 C-11.81245167 35.21497294 -9.5112052 33.68160693 -7.3125 30.75 C-3.43589122 27.81635011 1.3040558 28.52652463 6 29 C6.33 29.33 6.66 29.66 7 30 C6.89672162 35.88686778 5.70562474 39.63087825 1.90234375 44.16796875 C-3.91555834 49.77083545 -10.01418445 51.47214375 -18 51.5625 C-26.56330472 51.39584438 -33.40791419 49.6341101 -39.875 43.875 C-46.12129643 36.90513732 -47.65742773 29.29307585 -47.3125 20.109375 C-46.4518795 11.54620101 -43.36250927 5.82129998 -37 0 C-26.73531487 -7.97050435 -10.36548463 -7.98613475 0 0 Z " fill="#060606" transform="translate(217,32)"/>
<path d="M0 0 C1.51207031 -0.02416992 1.51207031 -0.02416992 3.0546875 -0.04882812 C10.69709912 -0.05377787 17.08382008 1.03779205 23.6875 5 C28.35193591 9.9309751 30.12578892 14.50645935 30.375 21.3125 C30.12282872 28.19938448 28.37637542 32.87526241 23.4375 37.6875 C18.63295034 40.73428759 14.18401748 41.70197435 8.5625 42.4375 C6.68111328 42.68886719 6.68111328 42.68886719 4.76171875 42.9453125 C3.80910156 43.06648438 2.85648437 43.18765625 1.875 43.3125 C1.82601563 44.16714844 1.77703125 45.02179688 1.7265625 45.90234375 C1.65179688 47.00707031 1.57703125 48.11179688 1.5 49.25 C1.43039062 50.35214844 1.36078125 51.45429687 1.2890625 52.58984375 C1.15242188 53.48832031 1.01578125 54.38679688 0.875 55.3125 C-1.58869532 56.54434766 -3.3144501 56.47982342 -6.0625 56.5 C-7.37541016 56.52126953 -7.37541016 56.52126953 -8.71484375 56.54296875 C-11.125 56.3125 -11.125 56.3125 -14.125 54.3125 C-14.50595093 52.11132812 -14.50595093 52.11132812 -14.51318359 49.34375 C-14.52264008 48.30927734 -14.53209656 47.27480469 -14.5418396 46.20898438 C-14.53576691 45.08814453 -14.52969421 43.96730469 -14.5234375 42.8125 C-14.52630768 41.66587891 -14.52917786 40.51925781 -14.53213501 39.33789062 C-14.53417933 36.91015124 -14.52862393 34.48239551 -14.51611328 32.0546875 C-14.50006567 28.32775216 -14.51595049 24.60190141 -14.53515625 20.875 C-14.53317388 18.52083093 -14.52933035 16.16666253 -14.5234375 13.8125 C-14.52951019 12.69166016 -14.53558289 11.57082031 -14.5418396 10.41601562 C-14.53238312 9.38154297 -14.52292664 8.34707031 -14.51318359 7.28125 C-14.51079681 6.36794922 -14.50841003 5.45464844 -14.50595093 4.51367188 C-14.38023712 3.78728516 -14.25452332 3.06089844 -14.125 2.3125 C-9.62453032 -0.68781312 -5.29494681 -0.01654671 0 0 Z M0.875 15.3125 C0.77626184 17.31049572 0.74528201 19.31207158 0.75 21.3125 C0.74742187 22.405625 0.74484375 23.49875 0.7421875 24.625 C0.56952245 27.23080354 0.56952245 27.23080354 1.875 28.3125 C4.1372358 28.55096903 4.1372358 28.55096903 6.75 28.5625 C7.63429688 28.58828125 8.51859375 28.6140625 9.4296875 28.640625 C12.31775029 28.25308942 13.12692739 27.58776912 14.875 25.3125 C16.04356442 22.61581288 15.9421259 21.5293683 15.0625 18.6875 C13.97711522 16.20379671 13.97711522 16.20379671 11.875 14.3125 C9.47008578 14.03159713 9.47008578 14.03159713 6.8125 14.125 C5.46478516 14.13466797 5.46478516 14.13466797 4.08984375 14.14453125 C1.90174401 14.06855257 1.90174401 14.06855257 0.875 15.3125 Z " fill="#050505" transform="translate(424.125,26.6875)"/>
<path d="M0 0 C1.17755859 -0.00773437 1.17755859 -0.00773437 2.37890625 -0.015625 C4.4375 0.25 4.4375 0.25 6.4375 2.25 C6.6344232 4.92446551 6.71442642 7.50411063 6.7109375 10.1796875 C6.73122898 11.79557981 6.75207981 13.41146518 6.7734375 15.02734375 C6.79603454 17.57737072 6.81250488 20.12712362 6.81835938 22.67724609 C6.82788368 25.13689868 6.86166197 27.59531247 6.8984375 30.0546875 C6.89339203 30.8152243 6.88834656 31.57576111 6.88314819 32.35934448 C6.94831426 35.86737663 7.16578578 37.88293735 9.27978516 40.73876953 C12.17544058 42.76684229 13.97370553 42.69218653 17.4375 42.25 C20.45200644 40.64351562 20.45200644 40.64351562 21.10522461 38.62792969 C21.58972727 35.16058518 21.67550044 31.69795946 21.75390625 28.203125 C21.77468735 27.43192322 21.79546844 26.66072144 21.81687927 25.8661499 C21.88208572 23.41085428 21.94112484 20.95545479 22 18.5 C22.04321274 16.83202065 22.0868279 15.16405168 22.13085938 13.49609375 C22.23773736 9.41416804 22.33908566 5.33213818 22.4375 1.25 C25.56173387 0.39872132 27.89652706 0.2301124 31.125 0.625 C32.30642578 0.76035156 32.30642578 0.76035156 33.51171875 0.8984375 C35.4375 1.25 35.4375 1.25 36.4375 2.25 C36.56353651 4.88378119 36.6261919 7.48982983 36.640625 10.125 C36.64632507 10.92349365 36.65202515 11.7219873 36.65789795 12.54467773 C36.66736886 14.242825 36.67389019 15.94099083 36.67773438 17.63916016 C36.68735638 20.2116025 36.71832324 22.78321704 36.75 25.35546875 C36.75653844 27.00780777 36.7617856 28.6601525 36.765625 30.3125 C36.7779718 31.07224121 36.7903186 31.83198242 36.80303955 32.61474609 C36.77521367 39.44683967 35.45174751 45.6762393 31.1875 51.125 C23.39390747 57.1473215 15.969373 56.81517377 6.4375 56.25 C3.98046875 55.734375 3.98046875 55.734375 2.4375 55.25 C2.4375 54.59 2.4375 53.93 2.4375 53.25 C1.695 53.04375 0.9525 52.8375 0.1875 52.625 C-3.41562998 50.82343501 -4.61418033 48.72914227 -6.5625 45.25 C-7.39869412 42.53596716 -7.69510142 40.08028828 -7.72363281 37.24755859 C-7.73324036 36.47350677 -7.7428479 35.69945496 -7.75274658 34.90194702 C-7.75699646 34.07578888 -7.76124634 33.24963074 -7.765625 32.3984375 C-7.77132507 31.54319489 -7.77702515 30.68795227 -7.78289795 29.80679321 C-7.79232625 28.00304393 -7.79887329 26.1992776 -7.80273438 24.39550781 C-7.81248958 21.62795515 -7.8435525 18.86113005 -7.875 16.09375 C-7.88152558 14.34115024 -7.8867778 12.58854518 -7.890625 10.8359375 C-7.9029718 10.0057309 -7.9153186 9.17552429 -7.92803955 8.32015991 C-7.91894531 5.99365234 -7.91894531 5.99365234 -7.5625 2.25 C-4.42838698 0.16059132 -3.58799528 -0.02364412 0 0 Z " fill="#040404" transform="translate(126.5625,26.75)"/>
<path d="M0 0 C3.0625 0.375 3.0625 0.375 4.54370117 1.95141602 C6.46640565 5.019522 7.95739566 8.22669119 9.42578125 11.52734375 C9.74024704 12.22332169 10.05471283 12.91929962 10.37870789 13.6363678 C11.38212215 15.85968475 12.37874743 18.08596607 13.375 20.3125 C14.35870104 22.49874466 15.34378908 24.684359 16.32931519 26.86978149 C16.97515431 28.30414773 17.61914774 29.73934648 18.26126099 31.17538452 C19.76163792 34.52531368 21.28314072 37.8595652 22.88037109 41.16455078 C23.42902832 42.30778809 23.97768555 43.45102539 24.54296875 44.62890625 C25.03047607 45.62349854 25.5179834 46.61809082 26.02026367 47.64282227 C27.08838057 50.44284481 27.28067207 52.40887461 27.0625 55.375 C22.4393446 56.20716797 18.62907934 56.62043073 14.0625 55.375 C12.06948264 53.79433106 11.19706649 52.64413298 10.0625 50.375 C6.81297252 50.22953217 3.56428287 50.1408832 0.3125 50.0625 C-0.60789062 50.02060547 -1.52828125 49.97871094 -2.4765625 49.93554688 C-5.05458466 49.88884357 -7.40174106 49.90067723 -9.9375 50.375 C-12.33592397 52.72599055 -12.33592397 52.72599055 -13.9375 55.375 C-16.15625 56.1171875 -16.15625 56.1171875 -18.4375 56.25 C-19.1903125 56.30929688 -19.943125 56.36859375 -20.71875 56.4296875 C-22.94394324 56.37484119 -24.80885603 56.00391754 -26.9375 55.375 C-26.47950973 48.65469374 -23.87632307 43.33922051 -21 37.3125 C-20.00195932 35.18389598 -19.00457939 33.05498205 -18.0078125 30.92578125 C-17.24452637 29.30470459 -17.24452637 29.30470459 -16.46582031 27.65087891 C-14.96749421 24.4392911 -13.50408762 21.21439907 -12.0546875 17.98046875 C-11.60343506 16.97443604 -11.15218262 15.96840332 -10.68725586 14.93188477 C-9.82605848 13.00776954 -8.96741075 11.08251068 -8.11157227 9.15600586 C-7.72283936 8.29241455 -7.33410645 7.42882324 -6.93359375 6.5390625 C-6.59513428 5.78061035 -6.2566748 5.0221582 -5.90795898 4.24072266 C-4.3196709 1.18721384 -3.45781225 0.44142284 0 0 Z M-0.9375 26.375 C-1.9275 29.345 -2.9175 32.315 -3.9375 35.375 C-1.2975 35.375 1.3425 35.375 4.0625 35.375 C3.0725 32.405 2.0825 29.435 1.0625 26.375 C0.4025 26.375 -0.2575 26.375 -0.9375 26.375 Z " fill="#070707" transform="translate(376.9375,26.625)"/>
<path d="M0 0 C0.7895961 0.00718552 1.5791922 0.01437103 2.39271545 0.02177429 C3.2040242 0.02223251 4.01533295 0.02269073 4.85122681 0.02316284 C6.56860311 0.02618626 8.28597665 0.03407526 10.00331116 0.0464325 C12.63256043 0.06464564 15.26145667 0.06694247 17.89076233 0.06669617 C19.55808308 0.0716131 21.22540145 0.07744218 22.89271545 0.08427429 C23.68028732 0.08538712 24.46785919 0.08649994 25.27929688 0.08764648 C28.51142971 0.11573656 31.12136644 0.22299129 34.2091217 1.25224304 C33.67551739 5.5867398 32.68163966 8.68608234 30.47865295 12.44755554 C29.92524231 13.40589294 29.37183167 14.36423035 28.801651 15.35160828 C28.21424133 16.35006775 27.62683167 17.34852722 27.0216217 18.37724304 C25.83452031 20.43195995 24.64960032 22.4879388 23.4669342 24.54521179 C22.90135803 25.52796082 22.33578186 26.51070984 21.75306702 27.52323914 C19.03211427 32.3326651 16.56355347 37.2531071 14.2091217 42.25224304 C14.77421448 42.23653259 15.33930725 42.22082214 15.92152405 42.20463562 C18.47562193 42.14237259 21.02956042 42.10328168 23.5841217 42.06474304 C24.91830139 42.02703796 24.91830139 42.02703796 26.2794342 41.98857117 C27.13021545 41.9789032 27.9809967 41.96923523 28.8575592 41.95927429 C29.64308167 41.94356384 30.42860413 41.92785339 31.2379303 41.91166687 C32.21367004 42.08025208 32.21367004 42.08025208 33.2091217 42.25224304 C35.9115112 46.30582728 35.43849785 48.43534408 35.2091217 53.25224304 C34.7141217 54.24224304 34.7141217 54.24224304 34.2091217 55.25224304 C30.27486851 56.56366077 26.52049577 56.39500241 22.4200592 56.38505554 C21.56102997 56.38601227 20.70200073 56.38696899 19.81694031 56.38795471 C18.00300524 56.38863484 16.18906772 56.38679222 14.37513733 56.38261414 C11.58797291 56.37725045 8.80096869 56.38257148 6.0138092 56.38896179 C4.25339218 56.38830124 2.49297526 56.38702055 0.7325592 56.38505554 C-0.10594574 56.38707977 -0.94445068 56.389104 -1.80836487 56.39118958 C-7.67591913 56.36720221 -7.67591913 56.36720221 -8.7908783 55.25224304 C-9.20660098 51.09953004 -8.27684768 48.7507388 -6.19322205 45.18974304 C-5.36600647 43.75513733 -5.36600647 43.75513733 -4.52207947 42.29154968 C-3.93015808 41.28857849 -3.33823669 40.2856073 -2.7283783 39.25224304 C-1.53470548 37.18899865 -0.34199133 35.12519933 0.8497467 33.06083679 C1.42789124 32.06551941 2.00603577 31.07020203 2.60169983 30.04472351 C4.64086359 26.50220299 6.60172714 22.92299236 8.5216217 19.31474304 C9.05400452 18.3157196 9.58638733 17.31669617 10.13490295 16.28739929 C10.66664124 15.27999695 10.66664124 15.27999695 11.2091217 14.25224304 C10.08892639 14.27544617 8.96873108 14.29864929 7.81459045 14.32255554 C6.34194087 14.34131541 4.86928408 14.35951538 3.3966217 14.37724304 C2.65863342 14.39400085 1.92064514 14.41075867 1.16029358 14.42802429 C-2.70334256 14.46298932 -4.49991498 14.44621859 -7.7908783 12.25224304 C-8.15415955 9.93974304 -8.15415955 9.93974304 -8.1033783 7.25224304 C-8.09951111 6.36536804 -8.09564392 5.47849304 -8.09165955 4.56474304 C-7.44223139 -0.42826306 -4.30680007 0.01812809 0 0 Z " fill="#080808" transform="translate(311.79087829589844,26.747756958007813)"/>
<path d="M0 0 C20.19221709 -0.02332734 40.38443145 -0.04097836 60.5766592 -0.05181217 C69.95158271 -0.05697548 79.32649787 -0.06401884 88.70141602 -0.07543945 C96.86954522 -0.08538523 105.03766837 -0.09185317 113.20580345 -0.09408849 C117.53351055 -0.09539578 121.86120034 -0.09848277 126.1889019 -0.10573006 C130.25749728 -0.1124886 134.32606812 -0.1146173 138.39466858 -0.11310768 C139.89231563 -0.11338408 141.38996345 -0.11539019 142.88760567 -0.11920547 C144.92351318 -0.12414006 146.9594337 -0.12239818 148.99534607 -0.12025452 C150.13744758 -0.12117631 151.27954908 -0.1220981 152.45625973 -0.12304783 C155 0 155 0 156 1 C156.10573328 3.60612081 156.14678075 6.1858777 156.14526367 8.79272461 C156.14862228 9.60895798 156.1519809 10.42519135 156.15544128 11.26615906 C156.16498033 13.97823588 156.16689587 16.69025117 156.16796875 19.40234375 C156.17117926 21.2794243 156.17454317 23.15650459 156.17805481 25.03358459 C156.18405347 28.97381165 156.18589395 32.91401675 156.18530273 36.85424805 C156.18520107 41.91316633 156.19885482 46.9719444 156.21607494 52.03082943 C156.22717161 55.9091914 156.22922266 59.78751923 156.22869301 63.66589546 C156.2298766 65.53148444 156.23431943 67.39707419 156.24202538 69.26264763 C156.25177844 71.8678264 156.24896592 74.47269756 156.24291992 77.07788086 C156.24853943 77.8545813 156.25415894 78.63128174 156.25994873 79.43151855 C156.22831551 84.77168449 156.22831551 84.77168449 154 87 C151.36444664 87.24609566 151.36444664 87.24609566 147.95101929 87.24050903 C146.66090439 87.24325836 145.37078949 87.24600769 144.0415802 87.24884033 C142.60372833 87.24176155 141.16587739 87.23449192 139.72802734 87.22705078 C138.22036242 87.2264869 136.71269695 87.22680278 135.20503235 87.22793579 C131.10399411 87.22851119 127.00307213 87.2167267 122.90206099 87.20278788 C118.61925306 87.19031163 114.33644267 87.18911248 110.05361938 87.18673706 C101.93986209 87.18051314 93.82615849 87.16409001 85.71242487 87.14403808 C76.47676973 87.12170742 67.24111206 87.11069279 58.00543666 87.10064721 C39.00359396 87.07972455 20.00180129 87.0445309 1 87 C-0.125 85.5 -0.125 85.5 -1 83 C-0.34 80.36 0.32 77.72 1 75 C48.52 75 96.04 75 145 75 C145 53.55 145 32.1 145 10 C130.93310547 10.01740234 130.93310547 10.01740234 116.58203125 10.03515625 C110.62565076 10.04026837 104.66927188 10.04512404 98.71289062 10.04882812 C89.26765395 10.05474919 79.82242623 10.06168936 70.37719727 10.07543945 C63.49663161 10.08545115 56.61607325 10.09186877 49.73550051 10.09408849 C46.09710865 10.09538465 42.45873768 10.09840038 38.82035255 10.10573006 C34.74456507 10.11387322 30.66881319 10.11398699 26.59301758 10.11352539 C25.40545868 10.11712067 24.21789978 10.12071594 22.99435425 10.12442017 C6.63530556 10.10449334 6.63530556 10.10449334 0 9 C-1.53445094 5.93109813 -0.54984289 3.29905734 0 0 Z M1 1 C1 3.31 1 5.62 1 8 C49.51 8 98.02 8 148 8 C148 31.1 148 54.2 148 78 C99.49 78 50.98 78 1 78 C1 80.31 1 82.62 1 85 C51.49 85 101.98 85 154 85 C154 57.28 154 29.56 154 1 C103.51 1 53.02 1 1 1 Z " fill="#E0D9D6" transform="translate(468,22)"/>
<path d="M0 0 C1.18439415 0.00136711 1.18439415 0.00136711 2.39271545 0.00276184 C3.2040242 -0.00152328 4.01533295 -0.00580841 4.85122681 -0.01022339 C6.56857876 -0.01597091 8.28595506 -0.01646385 10.00331116 -0.01213074 C12.63288391 -0.0089734 15.26132901 -0.03241439 17.89076233 -0.05778503 C19.55807861 -0.06005823 21.22539793 -0.06076143 22.89271545 -0.05973816 C23.68028732 -0.06894791 24.46785919 -0.07815765 25.27929688 -0.08764648 C30.71748675 -0.04150291 30.71748675 -0.04150291 33.20619202 1.70515442 C34.46081252 3.70466767 34.57948592 4.95336578 34.5216217 7.30354309 C34.51775452 7.98416809 34.51388733 8.66479309 34.50990295 9.36604309 C34.2091217 11.30354309 34.2091217 11.30354309 32.2091217 14.30354309 C29.6075592 14.59651184 29.6075592 14.59651184 26.5841217 14.49104309 C25.07978577 14.45043762 25.07978577 14.45043762 23.5450592 14.40901184 C22.77419983 14.37420715 22.00334045 14.33940247 21.2091217 14.30354309 C21.19453918 15.50478821 21.17995667 16.70603333 21.16493225 17.94367981 C21.10706179 22.39060082 21.02982908 26.83700943 20.94667053 31.28352356 C20.91336801 33.20987141 20.88535281 35.13631808 20.86268616 37.06282043 C20.82923747 39.82838659 20.77692834 42.59304262 20.72084045 45.35823059 C20.71125557 46.65517349 20.71125557 46.65517349 20.70147705 47.97831726 C20.64149475 50.40461731 20.64149475 50.40461731 20.2091217 54.30354309 C17.11131222 56.36874941 16.2550736 56.59831333 12.7091217 56.61604309 C11.54896545 56.64117981 11.54896545 56.64117981 10.3653717 56.66682434 C7.65090016 56.2094949 6.91751692 55.42571186 5.2091217 53.30354309 C4.94739417 50.29058073 4.86052058 47.48873741 4.91615295 44.47932434 C4.9203978 43.61792343 4.92464264 42.75652252 4.92901611 41.86901855 C4.94580922 39.11770878 4.98346214 36.36713147 5.0216217 33.61604309 C5.03666775 31.75081929 5.05035629 29.88558402 5.06263733 28.02033997 C5.09571477 23.44779211 5.1475011 18.87579179 5.2091217 14.30354309 C4.05283264 14.33834778 4.05283264 14.33834778 2.8731842 14.37385559 C1.87029358 14.39190247 0.86740295 14.40994934 -0.1658783 14.42854309 C-1.16361267 14.45174622 -2.16134705 14.47494934 -3.1893158 14.49885559 C-5.7908783 14.30354309 -5.7908783 14.30354309 -7.7908783 12.30354309 C-8.0565033 9.99104309 -8.0565033 9.99104309 -8.0408783 7.30354309 C-8.04603455 6.41666809 -8.0511908 5.52979309 -8.0565033 4.61604309 C-7.48291052 -0.37758813 -4.28155697 0.05583524 0 0 Z " fill="#090909" transform="translate(25.790878295898438,26.696456909179688)"/>
<path d="M0 0 C1.36377274 0.01078583 1.36377274 0.01078583 2.75509644 0.02178955 C4.18930939 0.02135147 4.18930939 0.02135147 5.65249634 0.02090454 C8.82334363 0.02230157 11.993958 0.03788034 15.1647644 0.05352783 C17.35908886 0.05725663 19.55341498 0.06010423 21.7477417 0.06210327 C27.53132704 0.06975018 33.3148124 0.08940775 39.09835815 0.11151123 C44.99678189 0.13194691 50.89522174 0.14110011 56.79367065 0.15118408 C68.37314174 0.17265264 79.95253852 0.20680132 91.5319519 0.24884033 C91.72607371 1.72715255 91.91207321 3.20653349 92.0944519 4.68634033 C92.251073 5.92190674 92.251073 5.92190674 92.41085815 7.18243408 C92.47079956 8.20530518 92.47079956 8.20530518 92.5319519 9.24884033 C90.3721198 11.40867243 85.33090557 10.43543578 82.33053589 10.4541626 C81.36478638 10.46406219 80.39903687 10.47396179 79.40402222 10.48416138 C76.19538874 10.51587934 72.98674043 10.54057433 69.77804565 10.56524658 C67.55986637 10.58580723 65.34169109 10.60680345 63.1235199 10.6282196 C57.2725955 10.68353216 51.42163521 10.73290079 45.57064819 10.78106689 C39.60524281 10.83121504 33.63988983 10.88693593 27.67453003 10.94219971 C15.96038204 11.04989353 4.24618864 11.15131341 -7.4680481 11.24884033 C-8.54878661 8.00662479 -8.68481218 5.64481097 -8.4680481 2.24884033 C-5.76578352 -0.45342425 -3.6701654 0.01219636 0 0 Z " fill="#EA9B77" transform="translate(517.4680480957031,34.75115966796875)"/>
<path d="M0 0 C3.72082165 1.24252484 5.5645589 3.40489716 7.875 6.5625 C9 9 9 9 9 12 C1.5748503 12.49500998 1.5748503 12.49500998 -1.25 10.0625 C-1.8275 9.381875 -2.405 8.70125 -3 8 C-5.77347465 6.70571183 -7.02784748 7.00625148 -10.0625 7.6875 C-13.30192729 9.13490368 -14.39305957 9.87069495 -16 13 C-17.53931948 18.82742376 -16.72114572 21.86005808 -14 27 C-12.2243545 29.19167509 -12.2243545 29.19167509 -9.94140625 29.23046875 C-8.76384766 29.20919922 -8.76384766 29.20919922 -7.5625 29.1875 C-6.38880859 29.17783203 -6.38880859 29.17783203 -5.19140625 29.16796875 C-2.82200323 29.07555669 -2.82200323 29.07555669 0 28 C1.22520264 24.99152582 1.22520264 24.99152582 2 22 C-0.97 22 -3.94 22 -7 22 C-7 20.02 -7 18.04 -7 16 C-1.39 16 4.22 16 10 16 C10 22.6 10 29.2 10 36 C7.69 36 5.38 36 3 36 C3 35.34 3 34.68 3 34 C2.21625 34.495 1.4325 34.99 0.625 35.5 C-5.1259663 37.87971019 -10.42655397 37.87400054 -16.3125 35.875 C-20.43843192 32.99644284 -23.37787651 29.86637047 -25 25 C-25.6350156 17.29653203 -25.88954348 11.21104172 -21 5 C-14.4526648 -0.92377947 -8.62346157 -0.70635863 0 0 Z " fill="#0C0C0C" transform="translate(339,112)"/>
<path d="M0 0 C8 0 8 0 10.28515625 2.01953125 C10.87167969 2.94121094 11.45820313 3.86289063 12.0625 4.8125 C12.71347656 5.80507812 13.36445313 6.79765625 14.03515625 7.8203125 C14.68355469 8.86960937 15.33195312 9.91890625 16 11 C16.67933594 12.04929687 17.35867188 13.09859375 18.05859375 14.1796875 C19.730808 16.77044198 21.36877515 19.38324347 23 22 C23.33 14.74 23.66 7.48 24 0 C26.31 0 28.62 0 31 0 C31 11.88 31 23.76 31 36 C23 36 23 36 20.80664062 34.07226562 C19.98969727 32.75258789 19.98969727 32.75258789 19.15625 31.40625 C18.55039062 30.45878906 17.94453125 29.51132813 17.3203125 28.53515625 C16.41925781 27.03275391 16.41925781 27.03275391 15.5 25.5 C14.55253906 23.99759766 14.55253906 23.99759766 13.5859375 22.46484375 C12.03182331 19.99238935 10.51247972 17.49814066 9 15 C8.67 21.93 8.34 28.86 8 36 C5.36 36 2.72 36 0 36 C0 24.12 0 12.24 0 0 Z " fill="#0A0A0A" transform="translate(278,112)"/>
<path d="M0 0 C19.72413793 0 19.72413793 0 25 3 C29.45617801 7.45617801 31.0962369 11.65978655 31.3125 17.875 C31.18196124 23.7231365 29.88447146 27.75079213 26.0625 32.3125 C22.50278397 35.22499493 19.84076279 36.25436875 15.234375 36.1953125 C14.43225586 36.19031738 13.63013672 36.18532227 12.80371094 36.18017578 C11.79598633 36.16196777 10.78826172 36.14375977 9.75 36.125 C6.5325 36.08375 3.315 36.0425 0 36 C0 24.12 0 12.24 0 0 Z M7 7 C7 14.59 7 22.18 7 30 C15.15803168 30.49844762 15.15803168 30.49844762 21 27 C23.9657349 22.55139766 23.64087636 18.21856465 23 13 C21.19881522 9.99802536 20.09667268 8.54833634 17 7 C13.7 7 10.4 7 7 7 Z " fill="#060606" transform="translate(17,112)"/>
<path d="M0 0 C2.64 0 5.28 0 8 0 C8 4.95 8 9.9 8 15 C12.95 15 17.9 15 23 15 C23 10.05 23 5.1 23 0 C25.31 0 27.62 0 30 0 C30 11.88 30 23.76 30 36 C27.69 36 25.38 36 23 36 C23 31.05 23 26.1 23 21 C18.05 21 13.1 21 8 21 C8 25.95 8 30.9 8 36 C5.36 36 2.72 36 0 36 C0 24.12 0 12.24 0 0 Z " fill="#080808" transform="translate(229,112)"/>
<path d="M0 0 C1.69576172 -0.03867188 1.69576172 -0.03867188 3.42578125 -0.078125 C8.19149597 0.40130019 10.69454056 2.20187614 13.9375 5.625 C15.70887085 8.28205627 16.32836121 10.10753556 16.6875 13.25 C11.40309633 13.69036697 11.40309633 13.69036697 8.6875 13.25 C6.5625 10.8125 6.5625 10.8125 4.6875 8.25 C1.05456886 7.01325749 -0.55441953 6.90541797 -4.0625 8.5 C-6.82151861 10.64590336 -8.16885857 12.27323829 -8.68359375 15.7734375 C-8.82827311 21.92740865 -8.82827311 21.92740865 -6.3125 27.4375 C-2.12117673 29.96975781 -0.16235135 30.01981767 4.6875 29.25 C6.04577971 27.60360035 7.38004251 25.93704193 8.6875 24.25 C12.4375 23.9375 12.4375 23.9375 15.6875 24.25 C16.1825 25.24 16.1825 25.24 16.6875 26.25 C14.87798521 30.87431557 12.79315559 33.47868248 8.6875 36.25 C3.41442318 38.00769227 -2.46939413 38.36776267 -7.70703125 36.30859375 C-12.3291522 33.57305278 -15.30415107 30.67118385 -16.859375 25.39453125 C-18.25363427 18.79583869 -17.87635727 12.84091406 -14.52734375 6.94140625 C-10.54880509 1.40215467 -6.49305722 0.08824087 0 0 Z " fill="#0F0F0F" transform="translate(208.3125,111.75)"/>
<path d="M0 0 C2.40731462 2.34396424 3.99665473 4.2495105 5.375 7.3125 C5.375 8.6325 5.375 9.9525 5.375 11.3125 C0.00181872 11.7529247 0.00181872 11.7529247 -2.625 11.3125 C-4.25 8.875 -4.25 8.875 -5.625 6.3125 C-9.3376321 4.99245303 -11.14663435 5.14691189 -14.875 6.4375 C-18.06225502 8.61062842 -18.77889344 9.58963115 -19.625 13.3125 C-20.10124062 18.55114685 -19.39907836 21.83129649 -16.625 26.3125 C-13.44959056 27.90020472 -10.08309441 27.72350302 -6.625 27.3125 C-4.45023599 25.76911909 -3.80667363 24.67584727 -2.625 22.3125 C0.015 22.3125 2.655 22.3125 5.375 22.3125 C5.10190064 26.22692413 4.62507787 28.0151101 2.0625 31.0625 C-2.93936682 35.25010943 -6.50783959 35.70394512 -12.9375 35.55859375 C-18.07206423 35.0884229 -21.1224711 33.08768872 -24.4375 29.3125 C-28.82310511 23.29795585 -28.32457532 16.49904649 -27.625 9.3125 C-26.07255492 4.86929512 -23.7636398 2.22341184 -20.125 -0.6875 C-13.40205813 -2.60834053 -6.40182149 -2.98015828 0 0 Z " fill="#111111" transform="translate(448.625,113.6875)"/>
<path d="M0 0 C2.87606489 2.14486195 3.89171736 3.94916886 4.80078125 7.390625 C4.84203125 8.2775 4.88328125 9.164375 4.92578125 10.078125 C-0.46473207 10.43160128 -0.46473207 10.43160128 -3.07421875 10.078125 C-4.76171875 8.078125 -4.76171875 8.078125 -6.07421875 6.078125 C-8.70047014 5.74386765 -8.70047014 5.74386765 -11.07421875 6.078125 C-11.40421875 7.398125 -11.73421875 8.718125 -12.07421875 10.078125 C-11.56632812 10.33207031 -11.0584375 10.58601563 -10.53515625 10.84765625 C-9.10338456 11.56354209 -7.67243711 12.28107807 -6.2421875 13 C-4.42649265 13.90294014 -2.59574205 14.77551967 -0.76171875 15.640625 C1.76018914 16.98955247 3.16989024 17.86942543 4.92578125 20.078125 C5.61548691 23.46917783 5.51752376 26.67424834 4.92578125 30.078125 C2.39902086 33.42437524 0.88644583 34.75790347 -3.07421875 36.078125 C-8.1563987 36.61171016 -11.97923548 36.64516991 -16.57421875 34.265625 C-19.07421875 32.078125 -19.07421875 32.078125 -21.07421875 29.078125 C-21.19921875 26.390625 -21.19921875 26.390625 -21.07421875 24.078125 C-18.43421875 24.078125 -15.79421875 24.078125 -13.07421875 24.078125 C-12.84734375 24.7175 -12.62046875 25.356875 -12.38671875 26.015625 C-11.22082899 28.29907282 -11.22082899 28.29907282 -8.63671875 29.015625 C-6.02349429 29.35299229 -6.02349429 29.35299229 -4.26171875 27.640625 C-3.86984375 27.125 -3.47796875 26.609375 -3.07421875 26.078125 C-3.40421875 25.088125 -3.73421875 24.098125 -4.07421875 23.078125 C-6.72475821 21.74795119 -6.72475821 21.74795119 -9.88671875 20.640625 C-14.17145003 19.05929299 -17.24860912 17.75208551 -20.07421875 14.078125 C-20.93395721 10.64475389 -20.77827357 7.536934 -20.07421875 4.078125 C-15.49698827 -2.27913955 -7.09443837 -3.15308372 0 0 Z " fill="#0C0C0C" transform="translate(86.07421875,112.921875)"/>
<path d="M0 0 C2.05078125 0.03255208 4.1015625 0.06510417 6.15234375 0.09765625 C7.57283265 3.84621915 8.98800247 7.59676997 10.40234375 11.34765625 C10.79808594 12.39179687 11.19382813 13.4359375 11.6015625 14.51171875 C14.2909141 21.65393121 16.79180218 28.8402119 19.15234375 36.09765625 C16.51234375 36.09765625 13.87234375 36.09765625 11.15234375 36.09765625 C10.16234375 33.78765625 9.17234375 31.47765625 8.15234375 29.09765625 C3.86234375 28.76765625 -0.42765625 28.43765625 -4.84765625 28.09765625 C-5.50765625 30.73765625 -6.16765625 33.37765625 -6.84765625 36.09765625 C-9.48765625 36.09765625 -12.12765625 36.09765625 -14.84765625 36.09765625 C-14.06563922 31.41486381 -12.60405103 27.02330029 -11.09765625 22.53515625 C-10.69994019 21.34611694 -10.69994019 21.34611694 -10.29418945 20.13305664 C-3.52815136 0.18647734 -3.52815136 0.18647734 0 0 Z M1.15234375 10.09765625 C0.64674467 11.5331965 0.14806885 12.97117645 -0.34765625 14.41015625 C-0.62609375 15.21066406 -0.90453125 16.01117188 -1.19140625 16.8359375 C-1.98698732 19.18535047 -1.98698732 19.18535047 -1.84765625 22.09765625 C0.79234375 22.09765625 3.43234375 22.09765625 6.15234375 22.09765625 C4.83234375 18.13765625 3.51234375 14.17765625 2.15234375 10.09765625 C1.82234375 10.09765625 1.49234375 10.09765625 1.15234375 10.09765625 Z " fill="#090909" transform="translate(139.84765625,111.90234375)"/>
<path d="M0 0 C18 0 18 0 24 3 C26.14721819 5.3550135 26.93766319 6.96105314 27.12890625 10.1484375 C26.89513181 14.4130501 26.34451093 16.55306691 23.6875 20 C19.87146032 22.83984348 16.93184083 23.1313506 12.25 23.0625 C10.14625 23.0315625 10.14625 23.0315625 8 23 C8 27.29 8 31.58 8 36 C5.36 36 2.72 36 0 36 C0 24.12 0 12.24 0 0 Z M8 6 C8 9.63 8 13.26 8 17 C9.44375 16.87625 10.8875 16.7525 12.375 16.625 C13.18710938 16.55539063 13.99921875 16.48578125 14.8359375 16.4140625 C17.20334191 16.17107412 17.20334191 16.17107412 19 14 C19.50014953 11.54258463 19.50014953 11.54258463 19 9 C17.50098982 7.01990794 17.50098982 7.01990794 15 6 C11.33285151 5.74936268 11.33285151 5.74936268 8 6 Z " fill="#090909" transform="translate(96,112)"/>
<path d="M0 0 C0 0.66 0 1.32 0 2 C0.99 2.33 1.98 2.66 3 3 C5.27094742 5.83868427 6.02770252 7.33513943 5.875 11 C4.64541786 15.21571018 3.23702996 17.94488621 -0.125 20.8125 C-4.14845209 22.47436065 -7.71306896 22.84026961 -12 22 C-16.57928176 18.49246504 -18.6510846 15.31156451 -19.5 9.6875 C-18.84535417 4.85948704 -16.76289624 2.05519557 -13 -1 C-8.46485482 -2.62032372 -4.46208285 -1.48736095 0 0 Z " fill="#F19166" transform="translate(577,128)"/>
<path d="M0 0 C0.721875 0.53625 1.44375 1.0725 2.1875 1.625 C2.1875 2.285 2.1875 2.945 2.1875 3.625 C2.8475 3.625 3.5075 3.625 4.1875 3.625 C4.1875 4.285 4.1875 4.945 4.1875 5.625 C4.8475 5.955 5.5075 6.285 6.1875 6.625 C6.6786724 10.07685048 6.84823897 13.18813296 6.1875 16.625 C3.09387951 20.58451936 -0.7220686 22.28659025 -5.4375 23.75 C-9.69975227 23.5921388 -11.63420923 22.41569434 -14.8125 19.625 C-14.8125 18.635 -14.8125 17.645 -14.8125 16.625 C-15.4725 16.625 -16.1325 16.625 -16.8125 16.625 C-18.66161783 8.27034943 -18.66161783 8.27034943 -16.68359375 4.4375 C-12.16386612 -0.99976632 -6.7487253 -3.29937681 0 0 Z " fill="#EF946B" transform="translate(519.8125,127.375)"/>
<path d="M0 0 C0.12375 0.928125 0.12375 0.928125 0.25 1.875 C0.4975 2.57625 0.745 3.2775 1 4 C1.66 4.268125 2.32 4.53625 3 4.8125 C3.66 5.204375 4.32 5.59625 5 6 C5.94284862 9.91644812 6.38087404 13.16423878 5 17 C4.34 17 3.68 17 3 17 C3 17.99 3 18.98 3 20 C0.04270493 22.95033673 -2.3318012 23.4544444 -6.4375 23.5 C-10.4681754 23.38699041 -11.72553069 23.19212852 -15.125 20.8125 C-18.3441006 15.98384911 -18.21583908 11.71973553 -18 6 C-17.67 5.34 -17.34 4.68 -17 4 C-16.01 4 -15.02 4 -14 4 C-14 3.01 -14 2.02 -14 1 C-9.02108916 -1.27607352 -5.23865187 -1.55219315 0 0 Z " fill="#F18F63" transform="translate(744,127)"/>
<path d="M0 0 C9.24 0 18.48 0 28 0 C28 1.98 28 3.96 28 6 C24.7 6 21.4 6 18 6 C18 15.9 18 25.8 18 36 C15.36 36 12.72 36 10 36 C10 26.1 10 16.2 10 6 C6.7 6 3.4 6 0 6 C0 4.02 0 2.04 0 0 Z " fill="#090909" transform="translate(160,112)"/>
<path d="M0 0 C2.31 0 4.62 0 7 0 C7 9.9 7 19.8 7 30 C12.28 30 17.56 30 23 30 C23 31.98 23 33.96 23 36 C15.41 36 7.82 36 0 36 C0 24.12 0 12.24 0 0 Z " fill="#070707" transform="translate(394,112)"/>
<path d="M0 0 C2.31 0 4.62 0 7 0 C7 9.9 7 19.8 7 30 C12.28 30 17.56 30 23 30 C23 31.98 23 33.96 23 36 C15.41 36 7.82 36 0 36 C0 24.12 0 12.24 0 0 Z " fill="#070707" transform="translate(366,112)"/>
<path d="M0 0 C2.64 0 5.28 0 8 0 C8 11.88 8 23.76 8 36 C5.36 36 2.72 36 0 36 C0 24.12 0 12.24 0 0 Z " fill="#090909" transform="translate(265,112)"/>
<path d="M0 0 C2.31 0 4.62 0 7 0 C7 11.88 7 23.76 7 36 C4.69 36 2.38 36 0 36 C0 24.12 0 12.24 0 0 Z " fill="#000000" transform="translate(53,112)"/>
<path d="M0 0 C13.2 0 26.4 0 40 0 C40 0.33 40 0.66 40 1 C27.13 1 14.26 1 1 1 C1 25.75 1 50.5 1 76 C12.55 76 24.1 76 36 76 C37.65497356 79.30994713 37.10084335 82.99123 37.0625 86.625 C37.05798828 87.42679687 37.05347656 88.22859375 37.04882812 89.0546875 C37.03703168 91.03649006 37.01909605 93.01825433 37 95 C40.93748458 95.02898816 44.87494179 95.04679464 48.8125 95.0625 C49.93205078 95.07087891 51.05160156 95.07925781 52.20507812 95.08789062 C53.27822266 95.09111328 54.35136719 95.09433594 55.45703125 95.09765625 C56.44678955 95.10289307 57.43654785 95.10812988 58.45629883 95.11352539 C61.12392734 95.11069959 61.12392734 95.11069959 64 94 C64 95.32 64 96.64 64 98 C54.43 98 44.86 98 35 98 C35 91.07 35 84.14 35 77 C23.45 77 11.9 77 0 77 C0 51.59 0 26.18 0 0 Z " fill="#BEAEA7" transform="translate(650,37)"/>
<path d="M0 0 C0.85049423 0.00222061 1.70098846 0.00444122 2.57725525 0.00672913 C4.01863609 0.00684242 4.01863609 0.00684242 5.48913574 0.00695801 C7.05630592 0.01469994 7.05630592 0.01469994 8.65513611 0.02259827 C9.71913132 0.02401321 10.78312653 0.02542816 11.87936401 0.02688599 C15.29293069 0.03250388 18.70643286 0.04505941 22.11997986 0.05775452 C24.42792162 0.06276721 26.73586441 0.06733052 29.04380798 0.07142639 C34.71505412 0.08247912 40.38626238 0.09923465 46.05747986 0.12025452 C46.55247986 1.60525452 46.55247986 1.60525452 47.05747986 3.12025452 C30.88747986 3.12025452 14.71747986 3.12025452 -1.94252014 3.12025452 C-1.94252014 30.51025452 -1.94252014 57.90025452 -1.94252014 86.12025452 C-2.27252014 86.12025452 -2.60252014 86.12025452 -2.94252014 86.12025452 C-2.96564297 75.05490594 -2.98343492 63.98956306 -2.99433231 52.92419529 C-2.99956127 47.78665885 -3.00665915 42.64913889 -3.01795959 37.51161194 C-3.02878802 32.55794042 -3.03479688 27.60428478 -3.03739738 22.65060234 C-3.03925172 20.75627835 -3.04287248 18.86195528 -3.0482502 16.96763802 C-3.05546004 14.32391066 -3.05651111 11.68024981 -3.05604553 9.03651428 C-3.05964081 8.24529678 -3.06323608 7.45407928 -3.06694031 6.6388855 C-3.0545672 0.1890974 -3.0545672 0.1890974 0 0 Z " fill="#D8AA97" transform="translate(645.9425201416016,27.879745483398438)"/>
<path d="M0 0 C16.17 0 32.34 0 49 0 C49 0.66 49 1.32 49 2 C33.82 2 18.64 2 3 2 C3 7.94 3 13.88 3 20 C18.18 20 33.36 20 49 20 C49 20.33 49 20.66 49 21 C32.83 21 16.66 21 0 21 C0 14.07 0 7.14 0 0 Z M1 2 C1 7.94 1 13.88 1 20 C1.33 20 1.66 20 2 20 C2 14.06 2 8.12 2 2 C1.67 2 1.34 2 1 2 Z " fill="#D5CCC9" transform="translate(615,121)"/>
<path d="M0 0 C0.66 0 1.32 0 2 0 C2.33 0.99 2.66 1.98 3 3 C-4.92 3 -12.84 3 -21 3 C-21 12.24 -21 21.48 -21 31 C-17.61363281 30.96519531 -14.22726562 30.93039063 -10.73828125 30.89453125 C-7.41854697 30.87106157 -4.09882231 30.85288725 -0.77905273 30.83520508 C1.50875053 30.82022052 3.79652557 30.79982588 6.08422852 30.77368164 C30.47996583 30.50208535 30.47996583 30.50208535 41 34 C41 34.99 41 35.98 41 37 C39.56206608 36.68950274 38.1246682 36.3765224 36.6875 36.0625 C35.88699219 35.88847656 35.08648438 35.71445313 34.26171875 35.53515625 C32 35 32 35 29 34 C27.36429557 33.88997931 25.72468293 33.83392182 24.08544922 33.81054688 C23.08786591 33.79382935 22.09028259 33.77711182 21.06246948 33.7598877 C19.98740143 33.74631226 18.91233337 33.73273682 17.8046875 33.71875 C16.14990891 33.69113586 16.14990891 33.69113586 14.46170044 33.66296387 C9.73221692 33.58414542 5.00259027 33.51635518 0.27294922 33.44775391 C-3.1748798 33.39618078 -6.62258035 33.33888403 -10.0703125 33.28125 C-11.68898727 33.26088684 -11.68898727 33.26088684 -13.34036255 33.2401123 C-14.33164154 33.22339478 -15.32292053 33.20667725 -16.34423828 33.18945312 C-17.65970139 33.17066101 -17.65970139 33.17066101 -19.0017395 33.15148926 C-21 33 -21 33 -22 32 C-22.08783542 29.78144736 -22.10694609 27.56011504 -22.09765625 25.33984375 C-22.0962413 24.67537735 -22.09482635 24.01091095 -22.09336853 23.3263092 C-22.08775518 21.19666101 -22.07520054 19.06711661 -22.0625 16.9375 C-22.05748671 15.49674631 -22.05292351 14.05599097 -22.04882812 12.61523438 C-22.03863076 9.07675042 -22.0190583 5.53849187 -22 2 C-14.74 1.67 -7.48 1.34 0 1 C0 0.67 0 0.34 0 0 Z " fill="#D3CFCE" transform="translate(706,55)"/>
<path d="M0 0 C1.05960938 0.00676758 1.05960938 0.00676758 2.140625 0.01367188 C3.88545275 0.02546125 5.630237 0.04339676 7.375 0.0625 C7.375 3.0325 7.375 6.0025 7.375 9.0625 C4.801671 10.3491645 2.87276962 10.23074551 0 10.25 C-1.43472656 10.27126953 -1.43472656 10.27126953 -2.8984375 10.29296875 C-5.65510017 10.05995572 -7.27447395 9.47170164 -9.625 8.0625 C-9.625 5.7525 -9.625 3.4425 -9.625 1.0625 C-6.55966836 -0.47016582 -3.35745728 -0.04026471 0 0 Z " fill="#EAA586" transform="translate(678.625,42.9375)"/>
<path d="M0 0 C4.62 0 9.24 0 14 0 C14 2.31 14 4.62 14 7 C39.41 7 64.82 7 91 7 C91 7.33 91 7.66 91 8 C65.26 8 39.52 8 13 8 C13 6.02 13 4.04 13 2 C11.22825181 2.08723378 9.45752623 2.19541655 7.6875 2.3125 C6.70136719 2.37050781 5.71523438 2.42851562 4.69921875 2.48828125 C1.75615543 3.04622813 0.81817001 3.68540132 -1 6 C-0.67 4.02 -0.34 2.04 0 0 Z " fill="#F9F9F9" transform="translate(594,142)"/>
<path d="M0 0 C1.98 0 3.96 0 6 0 C6 12.54 6 25.08 6 38 C1.05 38 -3.9 38 -9 38 C-8.67 36.68 -8.34 35.36 -8 34 C-7.67 34.33 -7.34 34.66 -7 35 C-5.15108054 35.23363881 -3.29511969 35.41303635 -1.4375 35.5625 C-0.42558594 35.64628906 0.58632813 35.73007813 1.62890625 35.81640625 C2.80259766 35.90728516 2.80259766 35.90728516 4 36 C3.93115528 31.35469321 3.84320696 26.71028941 3.73754883 22.06567383 C3.70429812 20.48569757 3.67626654 18.90560248 3.65356445 17.32543945 C3.62001984 15.05368421 3.56770773 12.78301797 3.51171875 10.51171875 C3.50532883 9.80536789 3.4989389 9.09901703 3.49235535 8.3712616 C3.37825866 4.40605782 3.37825866 4.40605782 1.46801758 1.03051758 C0.98357178 0.69044678 0.49912598 0.35037598 0 0 Z " fill="#DDD4D1" transform="translate(770,97)"/>
<path d="M0 0 C3.375 -0.125 3.375 -0.125 7 0 C9 2 9 2 9.1875 5.5625 C9 9 9 9 8 10 C6.48071962 10.07179964 4.95832518 10.08392007 3.4375 10.0625 C2.61121094 10.05347656 1.78492188 10.04445313 0.93359375 10.03515625 C0.29550781 10.02355469 -0.34257812 10.01195312 -1 10 C-2.23076923 4.58461538 -2.23076923 4.58461538 -1.0625 1.625 C-0.5365625 0.820625 -0.5365625 0.820625 0 0 Z " fill="#E6AD94" transform="translate(497,35)"/>
<path d="M0 0 C1.6415049 3.2830098 0.51888624 6.42545033 0 10 C-6.625 10.25 -6.625 10.25 -10 8 C-10.1875 4.375 -10.1875 4.375 -10 1 C-6.78548731 -0.60725635 -3.56387464 -0.05748185 0 0 Z " fill="#E6AE95" transform="translate(665,43)"/>
<path d="M0 0 C2.31 0 4.62 0 7 0 C7 6.93 7 13.86 7 21 C4.69 21 2.38 21 0 21 C0 14.07 0 7.14 0 0 Z M1 2 C1 7.94 1 13.88 1 20 C2.32 20 3.64 20 5 20 C5 14.39 5 8.78 5 3 C3.68 2.67 2.36 2.34 1 2 Z " fill="#DAD5D3" transform="translate(671,121)"/>
<path d="M0 0 C7.68629576 -0.07627947 15.3724933 -0.12869635 23.05908203 -0.16479492 C25.67207487 -0.17984933 28.28504258 -0.2002973 30.89794922 -0.22631836 C34.66119605 -0.26284778 38.42410775 -0.2797604 42.1875 -0.29296875 C43.34926758 -0.30845261 44.51103516 -0.32393646 45.70800781 -0.33988953 C52.20947845 -0.34122813 57.0810994 0.25871431 63 3 C62.67 3.66 62.34 4.32 62 5 C60.56206608 4.68950274 59.1246682 4.3765224 57.6875 4.0625 C56.88699219 3.88847656 56.08648438 3.71445313 55.26171875 3.53515625 C53 3 53 3 50 2 C48.35912211 1.88507216 46.7142222 1.82367646 45.06958008 1.79467773 C43.56836357 1.7647599 43.56836357 1.7647599 42.03681946 1.73423767 C40.95861435 1.71752518 39.88040924 1.70081268 38.76953125 1.68359375 C37.11119514 1.6524221 37.11119514 1.6524221 35.4193573 1.62062073 C31.8838021 1.55517668 28.34817194 1.49626397 24.8125 1.4375 C22.41730992 1.3943099 20.02212745 1.35069546 17.62695312 1.30664062 C11.75138158 1.19950052 5.87573528 1.09772443 0 1 C0 0.67 0 0.34 0 0 Z " fill="#FCFCFC" transform="translate(685,87)"/>
<path d="M0 0 C4.62 0 9.24 0 14 0 C14 2.31 14 4.62 14 7 C13.67 7 13.34 7 13 7 C13 5.35 13 3.7 13 2 C11.22825181 2.08723378 9.45752623 2.19541655 7.6875 2.3125 C6.70136719 2.37050781 5.71523438 2.42851562 4.69921875 2.48828125 C1.75615543 3.04622813 0.81817001 3.68540132 -1 6 C-0.67 4.02 -0.34 2.04 0 0 Z " fill="#EDECEB" transform="translate(594,142)"/>
<path d="M0 0 C0.33 0.66 0.66 1.32 1 2 C-0.3125 4.625 -0.3125 4.625 -2 7 C-2.66 7 -3.32 7 -4 7 C-3.67 10.3 -3.34 13.6 -3 17 C-3.99 16.67 -4.98 16.34 -6 16 C-6.49873087 11.92703124 -6.88737164 8.43224897 -4.6640625 4.84375 C-3.17536024 3.13838216 -1.66082274 1.53724962 0 0 Z " fill="#DDC6BB" transform="translate(564,127)"/>
<path d="M0 0 C0.66 0.33 1.32 0.66 2 1 C0.0398607 4.72426467 -1.27539364 6.19777111 -5 8 C-6.26804566 10.0335948 -6.26804566 10.0335948 -7 12 C-7.66 11.67 -8.32 11.34 -9 11 C-8.34 9.68 -7.68 8.36 -7 7 C-6.34 7 -5.68 7 -5 7 C-5 6.34 -5 5.68 -5 5 C-4.34 5 -3.68 5 -3 5 C-3 4.34 -3 3.68 -3 3 C-2.34 3 -1.68 3 -1 3 C-0.67 2.01 -0.34 1.02 0 0 Z " fill="#E1BAA9" transform="translate(722,117)"/>
<path d="M0 0 C0.99 0 1.98 0 3 0 C1.84826645 2.46800047 0.95216435 4.04783565 -1 6 C-1.71408334 7.98356483 -2.38617742 9.98315437 -3 12 C-4.10844919 8.67465243 -3.84454356 6.37817425 -3 3 C-2.01 3 -1.02 3 0 3 C0 2.01 0 1.02 0 0 Z " fill="#DCBBAD" transform="translate(730,128)"/>
<path d="M0 0 C2.64 0 5.28 0 8 0 C8.66 1.32 9.32 2.64 10 4 C9.34 4.66 8.68 5.32 8 6 C7.67 4.68 7.34 3.36 7 2 C4.69 2 2.38 2 0 2 C0 1.34 0 0.68 0 0 Z " fill="#D8B09E" transform="translate(720,57)"/>
<path d="M0 0 C2.66698331 0.73853737 2.66698331 0.73853737 5.5625 -0.5 C6.5525 0.16 7.5425 0.82 8.5625 1.5 C6.98289731 3.07960269 5.36713184 2.66986544 3.1875 2.6875 C2.39601563 2.70167969 1.60453125 2.71585938 0.7890625 2.73046875 C-1.4375 2.5 -1.4375 2.5 -4.4375 0.5 C-2.4375 -0.5 -2.4375 -0.5 0 0 Z " fill="#DBC8C0" transform="translate(568.4375,153.5)"/>
<path d="M0 0 C1.62463842 -0.05395478 3.24978541 -0.09277195 4.875 -0.125 C5.77992188 -0.14820312 6.68484375 -0.17140625 7.6171875 -0.1953125 C10 0 10 0 12 2 C9.64574115 2 7.29126873 1.9855361 4.9375 1.9375 C1.93763763 1.85635633 1.93763763 1.85635633 -1 3 C-0.67 2.01 -0.34 1.02 0 0 Z " fill="#E3DDDB" transform="translate(509,121)"/>
<path d="M0 0 C0.99 0 1.98 0 3 0 C3 0.66 3 1.32 3 2 C2.34 2 1.68 2 1 2 C0.731875 2.598125 0.46375 3.19625 0.1875 3.8125 C-0.98493467 5.97224808 -2.19369282 7.35790256 -4 9 C-4.99 8.67 -5.98 8.34 -7 8 C-6.34 8 -5.68 8 -5 8 C-4.67 7.01 -4.34 6.02 -4 5 C-2.125 2.3125 -2.125 2.3125 0 0 Z " fill="#DBB6A5" transform="translate(554,117)"/>
<path d="M0 0 C8.57142857 0.85714286 8.57142857 0.85714286 12 3 C11.67 3.66 11.34 4.32 11 5 C6.545 4.01 6.545 4.01 2 3 C2 2.34 2 1.68 2 1 C1.34 0.67 0.68 0.34 0 0 Z " fill="#DCC7BE" transform="translate(736,87)"/>
<path d="M0 0 C2.39782638 0.11152681 4.39644512 0.44616892 6.6875 1.125 C6.6875 1.785 6.6875 2.445 6.6875 3.125 C4.0475 3.455 1.4075 3.785 -1.3125 4.125 C-1.9725 3.135 -2.6325 2.145 -3.3125 1.125 C-2.3125 0.125 -2.3125 0.125 0 0 Z " fill="#E4BFAE" transform="translate(737.3125,125.875)"/>
<path d="M0 0 C0.66 0.33 1.32 0.66 2 1 C2.0270043 2.45823212 2.04639787 3.91660675 2.0625 5.375 C2.07410156 6.18710938 2.08570313 6.99921875 2.09765625 7.8359375 C2 10 2 10 1 12 C0.34 12 -0.32 12 -1 12 C-0.73958333 10.046875 -0.47916667 8.09375 -0.21875 6.140625 C0.06777357 3.69541605 0.06777357 3.69541605 0 0 Z " fill="#DCD2CE" transform="translate(753,132)"/>
<path d="M0 0 C2.97 0.33 5.94 0.66 9 1 C9 1.99 9 2.98 9 4 C6.03 3.01 3.06 2.02 0 1 C0 0.67 0 0.34 0 0 Z " fill="#DFCDC6" transform="translate(759,94)"/>
<path d="M0 0 C2.64 0 5.28 0 8 0 C7.01 1.485 7.01 1.485 6 3 C2.875 3.1875 2.875 3.1875 0 3 C0 2.01 0 1.02 0 0 Z " fill="#E7E5E4" transform="translate(538,142)"/>
<path d="M0 0 C0.33 0 0.66 0 1 0 C1.125 6.75 1.125 6.75 0 9 C-0.99 8.67 -1.98 8.34 -3 8 C-2.01 5.36 -1.02 2.72 0 0 Z " fill="#DECAC0" transform="translate(586,139)"/>
<path d="" fill="#FDFDFD" transform="translate(0,0)"/>
<path d="" fill="#FDFDFD" transform="translate(0,0)"/>
<path d="" fill="#FDFDFD" transform="translate(0,0)"/>
<path d="" fill="#FDFDFD" transform="translate(0,0)"/>
<path d="" fill="#FDFDFD" transform="translate(0,0)"/>
<path d="" fill="#FDFDFD" transform="translate(0,0)"/>
<path d="" fill="#FDFDFD" transform="translate(0,0)"/>
<path d="" fill="#FDFDFD" transform="translate(0,0)"/>
<path d="" fill="#FDFDFD" transform="translate(0,0)"/>
<path d="" fill="#FDFDFD" transform="translate(0,0)"/>
<path d="" fill="#FDFDFD" transform="translate(0,0)"/>
<path d="" fill="#FDFDFD" transform="translate(0,0)"/>
<path d="" fill="#FDFDFD" transform="translate(0,0)"/>
<path d="" fill="#FDFDFD" transform="translate(0,0)"/>
<path d="" fill="#FDFDFD" transform="translate(0,0)"/>
<path d="" fill="#FDFDFD" transform="translate(0,0)"/>
<path d="" fill="#FDFDFD" transform="translate(0,0)"/>
<path d="" fill="#FDFDFD" transform="translate(0,0)"/>
<path d="" fill="#FDFDFD" transform="translate(0,0)"/>
<path d="" fill="#FDFDFD" transform="translate(0,0)"/>
<path d="" fill="#FDFDFD" transform="translate(0,0)"/>
<path d="" fill="#FDFDFD" transform="translate(0,0)"/>
<path d="" fill="#FDFDFD" transform="translate(0,0)"/>
<path d="" fill="#FDFDFD" transform="translate(0,0)"/>
<path d="" fill="#FDFDFD" transform="translate(0,0)"/>
<path d="" fill="#FDFDFD" transform="translate(0,0)"/>
<path d="" fill="#FDFDFD" transform="translate(0,0)"/>
<path d="" fill="#FDFDFD" transform="translate(0,0)"/>
<path d="" fill="#FDFDFD" transform="translate(0,0)"/>
<path d="" fill="#FDFDFD" transform="translate(0,0)"/>
<path d="" fill="#FDFDFD" transform="translate(0,0)"/>
<path d="" fill="#FDFDFD" transform="translate(0,0)"/>
<path d="" fill="#FDFDFD" transform="translate(0,0)"/>
<path d="" fill="#FDFDFD" transform="translate(0,0)"/>
<path d="" fill="#FDFDFD" transform="translate(0,0)"/>
<path d="" fill="#FDFDFD" transform="translate(0,0)"/>
<path d="" fill="#FDFDFD" transform="translate(0,0)"/>
</svg>
